<?xml version="1.0" encoding="utf-8"?>
<!-- Generator: Adobe Illustrator 27.7.0, SVG Export Plug-In . SVG Version: 6.00 Build 0)  -->
<svg version="1.1" id="Layer_1" xmlns="http://www.w3.org/2000/svg" xmlns:xlink="http://www.w3.org/1999/xlink" x="0px" y="0px"
	 viewBox="0 0 600 80.5" style="enable-background:new 0 0 600 80.5;" xml:space="preserve">
<style type="text/css">
	.st0{fill:#FFFFFF;}
</style>
<g>
	<path class="st0" d="M38.7,59.5L27.2,40.8l-5.1,4.8v13.8h-9.8V5.1h9.8v29.3l14.9-14h11.9L34.2,34.1l15.3,25.4H38.7z"/>
	<path class="st0" d="M63.7,42.1c0.3,7,3.4,10.9,9,10.9c4.7,0,7.1-2.3,7.9-5.8h9.8c-1.7,8.2-7.7,13.2-17.5,13.2
		c-12,0-19.4-7.5-19.4-20.1c0-13.1,7.6-20.7,19.4-20.7c11,0,17.8,6.7,17.8,19.3l-0.2,3.2H63.7z M80.7,36c-0.5-5.7-2.6-9.1-8-9.1
		c-5.1,0-8,3.3-8.8,9.1H80.7z"/>
	<path class="st0" d="M103.1,75.5l7-17.6L95.5,20.4h10.4l9.2,27.6l9.5-27.6h10.3l-22.2,55.1H103.1z"/>
	<path class="st0" d="M161.5,31.8c-0.4-4.4-3.3-5.8-6.8-5.8c-3.3,0-6.3,1-6.3,3.9c0,8.7,22.8,3.6,22.8,18.7
		c0,7.2-6.3,11.8-16.9,11.8c-5.1,0-15.7-1.6-16.7-12.5h9.5c0.5,4.5,4,5.7,7.6,5.7c4.7,0,6.8-1.5,6.8-4.2c0-8.5-22.7-3.5-22.7-18.5
		c0-7.7,8.1-11.3,15.8-11.3c6.3,0,15.1,1.6,16.3,11.9L161.5,31.8z"/>
	<path class="st0" d="M193.8,40c0-12.8,7.3-20.4,19-20.4s19,7.6,19,20.4c0,12.8-7.3,20.4-19,20.4S193.8,52.7,193.8,40z M221.8,40
		c0-8.3-2.9-13.1-8.9-13.1s-9,4.8-9,13.1s3,13,9,13S221.8,48.3,221.8,40z"/>
	<path class="st0" d="M240.4,75.5V20.4h9.4V28c2.7-6,7.3-8.4,12.8-8.4c8.4,0,15.3,5.7,15.3,20.4c0,14.3-6.9,20.4-15.3,20.4
		c-5.4,0-9.9-2.2-12.6-7.9l0.3,6v16.9H240.4z M267.8,40c0-9.1-3.7-13.1-8.5-13.1c-5.5,0-9.1,3.6-9.1,13.1c0,9.3,3.6,13,9.1,13
		C264.1,53,267.8,49,267.8,40z"/>
	<path class="st0" d="M294.6,42.1c0.3,7,3.4,10.9,9,10.9c4.7,0,7.1-2.3,7.9-5.8h9.8c-1.7,8.2-7.7,13.2-17.5,13.2
		c-12,0-19.4-7.5-19.4-20.1c0-13.1,7.6-20.7,19.4-20.7c11,0,17.8,6.7,17.8,19.3l-0.2,3.2H294.6z M311.6,36c-0.5-5.7-2.6-9.1-8-9.1
		c-5.1,0-8,3.3-8.8,9.1H311.6z"/>
	<path class="st0" d="M356.2,59.5V35.8c0-5.1-2.3-8.2-6.8-8.2c-5.4,0-8.9,4.3-8.9,11.6v20.3h-9.8V20.4h9.4v7.9
		c2.8-6.2,7.4-8.7,13.2-8.7c6.6,0,12.8,3.6,12.8,12.4v27.5H356.2z"/>
	<path class="st0" d="M419.2,59.5V52c-2.9,6-7.3,8.4-12.8,8.4c-8.4,0-15.3-5.7-15.3-20.5c0-14.2,7-20.3,15.3-20.3
		c5.4,0,10,2.3,12.6,7.9l-0.3-5.5V5.1h9.8v54.4H419.2z M418.8,39.9c0-9.3-3.6-13-9.1-13c-4.8,0-8.5,3.9-8.5,13
		c0,9.2,3.7,13.2,8.5,13.2C415.2,53,418.8,49.3,418.8,39.9z"/>
	<path class="st0" d="M437.1,40c0-12.8,7.3-20.4,19-20.4c11.7,0,19,7.6,19,20.4c0,12.8-7.3,20.4-19,20.4
		C444.4,60.4,437.1,52.7,437.1,40z M465.1,40c0-8.3-2.9-13.1-8.9-13.1c-6,0-9,4.8-9,13.1s3,13,9,13C462.1,53,465.1,48.3,465.1,40z"
		/>
	<path class="st0" d="M481.3,40c0-12.8,7.3-20.4,19-20.4c11.7,0,19,7.6,19,20.4c0,12.8-7.3,20.4-19,20.4
		C488.6,60.4,481.3,52.7,481.3,40z M509.3,40c0-8.3-2.9-13.1-8.9-13.1c-6,0-9,4.8-9,13.1s3,13,9,13C506.3,53,509.3,48.3,509.3,40z"
		/>
	<path class="st0" d="M527.9,59.5V20.4h9.4v8c2.4-6.4,6.3-8.8,10.4-8.8c0.8,0,2.2,0.1,3.2,0.5v8.4h-4.2c-5.3,0-8.9,3.6-8.9,10.9
		v20.2H527.9z"/>
	<path class="st0" d="M578,31.8c-0.4-4.4-3.3-5.8-6.8-5.8c-3.3,0-6.3,1-6.3,3.9c0,8.7,22.8,3.6,22.8,18.7c0,7.2-6.3,11.8-16.9,11.8
		c-5.1,0-15.7-1.6-16.7-12.5h9.5c0.5,4.5,4,5.7,7.6,5.7c4.7,0,6.8-1.5,6.8-4.2c0-8.5-22.7-3.5-22.7-18.5c0-7.7,8.1-11.3,15.8-11.3
		c6.3,0,15.1,1.6,16.3,11.9L578,31.8z"/>
</g>
</svg>
